<svg width="158" height="36" viewBox="0 0 158 36" fill="none" xmlns="http://www.w3.org/2000/svg">
<path d="M26.2128 18C26.1943 17.9997 26.1757 17.9998 26.1571 17.9999C20.6579 17.9701 16.2072 13.5343 16.1889 8.03247L16.1887 8.05657L16.1888 7.9984L16.1889 8.02958L16.189 8.01824L16.189 8.01501L16.189 8.01207L16.1889 8.00727L16.1888 7.9984L16.1887 7.9908L16.1887 7.9759C16.2402 4.61529 18.9827 2 22.3574 2C24.1924 2 25.7279 3.21034 26.1174 4.90769L26.2128 5.75904L26.2128 7.9759L26.2128 18Z" fill="#4172F1"/>
<path d="M16.1886 27.9563L16.1886 27.9475C16.1886 27.9409 16.1887 27.9343 16.1887 27.9277C16.2393 22.4359 20.6124 18 26.1164 18C26.13 18 26.1435 17.9999 26.1571 17.9999C26.1756 18 26.1942 18 26.2128 18C29.5734 18.0515 32.1887 20.794 32.1887 24.1687C32.1887 26.298 30.559 28.0241 28.4297 28.0241L26.1164 28.0241L16.1887 28.0241C16.1887 28.0135 16.1887 28.0029 16.1887 27.9922L16.1886 27.9677C16.1886 27.9638 16.1886 27.96 16.1886 27.9563Z" fill="#4172F1"/>
<path d="M16.1887 7.9759C16.1886 7.98087 16.1887 7.98583 16.1887 7.9908C16.1812 13.5205 11.6961 18 6.16463 18C2.80401 17.9485 0.188721 15.206 0.188721 11.8313C0.188721 9.70203 1.81847 7.9759 3.94776 7.9759L6.16463 7.9759L16.1887 7.9759Z" fill="#4172F1"/>
<path d="M16.1886 27.9475L16.1886 27.9563L16.1886 27.9677C16.1671 31.3554 13.4136 34 10.02 34C7.89075 34 6.16463 32.3703 6.16463 30.241L6.16463 28.0241L6.16463 27.9277L6.16463 18C6.17064 18.0001 6.17665 18.0002 6.18267 18.0002C11.6663 18.0602 16.1887 22.4297 16.1887 27.9277C16.1887 27.9343 16.1886 27.9409 16.1886 27.9475Z" fill="#4172F1"/>
<path d="M150.927 11.2915H157.378V26.4331H154.773V20.9821H152.563L148.323 26.4331H145.113L149.534 20.8307C148.384 20.5481 147.455 19.9828 146.748 19.1349C146.062 18.2869 145.719 17.2977 145.719 16.1671C145.719 14.7741 146.213 13.6132 147.203 12.6845C148.192 11.7558 149.433 11.2915 150.927 11.2915ZM151.018 18.62H154.773V13.7444H151.018C150.251 13.7444 149.605 13.9766 149.08 14.441C148.575 14.8851 148.323 15.4706 148.323 16.1974C148.323 16.904 148.575 17.4895 149.08 17.9538C149.605 18.398 150.251 18.62 151.018 18.62Z" fill="#343A40"/>
<path d="M139.885 9.0475H131.253V6.74951H139.885V9.0475ZM131.381 21.9283L140.237 11.3153H142.475V26.4336H139.726V15.8205L130.869 26.4336H128.631V11.3153H131.381V21.9283Z" fill="#343A40"/>
<path d="M91.1951 9.02076H83.0186V6.71924H91.1951V9.02076ZM83.1398 21.9214L91.5282 11.292H93.648V26.4336H91.0437V15.8042L82.6552 26.4336H80.5354V11.292H83.1398V21.9214Z" fill="#343A40"/>
<path d="M103.496 16.4396V11.2925H102.794L101.951 13.1088L103.496 16.4396Z" fill="#343A40"/>
<path d="M105.041 13.1088L104.198 11.2925H103.496V16.4396L105.041 13.1088Z" fill="#343A40"/>
<path d="M95.7708 26.4341H98.861L99.9645 24.0547L103.496 16.4396L101.951 13.1088L96.8745 24.0547L95.7708 26.4341Z" fill="#343A40"/>
<path d="M108.131 26.4341H111.221L110.118 24.0547L105.041 13.1088L103.496 16.4396L107.028 24.0547L108.131 26.4341Z" fill="#343A40"/>
<path d="M98.861 26.4341H103.496V24.0547H99.9645L98.861 26.4341Z" fill="#343A40"/>
<path d="M103.496 26.4341H108.131L107.028 24.0547H103.496V26.4341Z" fill="#343A40"/>
<path opacity="0.8" fill-rule="evenodd" clip-rule="evenodd" d="M68.1892 26.8274C70.7128 26.8274 72.6207 25.8281 73.9128 23.8294V18.8629V13.8965C72.6207 11.8978 70.7128 10.8984 68.1892 10.8984C66.0694 10.8984 64.2625 11.6757 62.7685 13.2302C61.2746 14.7848 60.5276 16.6623 60.5276 18.8629C60.5276 21.0837 61.2746 22.9714 62.7685 24.5259C64.2423 26.0602 66.0492 26.8274 68.1892 26.8274ZM73.9128 18.8629C73.9128 20.3771 73.398 21.6692 72.3683 22.7392C71.3387 23.7688 70.0567 24.2836 68.5224 24.2836C67.0082 24.2836 65.7363 23.7688 64.7067 22.7392C63.677 21.6692 63.1622 20.3771 63.1622 18.8629C63.1622 17.3286 63.677 16.0466 64.7067 15.017C65.7363 13.9671 67.0082 13.4422 68.5224 13.4422C70.0567 13.4422 71.3387 13.9671 72.3683 15.017C73.398 16.0466 73.9128 17.3286 73.9128 18.8629Z" fill="#343A40"/>
<path d="M40.3777 11.2915H58.5476V13.805H56.0644V26.4331H53.4298V13.805H45.5864V26.4331H42.9518V13.805H40.3777V11.2915Z" fill="#343A40"/>
<path d="M74.1575 18.8418H76.7269L78.0116 11.3477H75.4422L74.1575 18.8418Z" fill="#343A40" stroke="#343A40" stroke-width="0.214118"/>
<path d="M74.1575 18.8428H76.7269L78.0116 26.3369H75.4422L74.1575 18.8428Z" fill="#343A40" stroke="#343A40" stroke-width="0.214118"/>
<circle cx="68.8076" cy="18.8423" r="7.92235" fill="#343A40"/>
<circle cx="68.8056" cy="18.8412" r="5.35294" fill="#E4F2FF"/>
<path d="M126.102 19.6932H113.518C113.779 21.0146 114.389 22.0557 115.35 22.8165C116.312 23.5574 117.513 23.9278 118.954 23.9278C120.937 23.9278 122.378 23.197 123.279 21.7354L125.501 22.9967C124.02 25.2592 121.817 26.3904 118.894 26.3904C116.532 26.3904 114.59 25.6496 113.068 24.168C111.586 22.6464 110.846 20.7543 110.846 18.4919C110.846 16.2094 111.576 14.3273 113.038 12.8457C114.5 11.3441 116.392 10.5933 118.714 10.5933C120.917 10.5933 122.708 11.3741 124.09 12.9358C125.491 14.4575 126.192 16.3195 126.192 18.5219C126.192 18.9023 126.162 19.2927 126.102 19.6932ZM118.714 13.056C117.333 13.056 116.171 13.4464 115.23 14.2272C114.309 15.0081 113.739 16.0692 113.518 17.4107H123.549C123.329 16.0292 122.779 14.958 121.898 14.1972C121.017 13.4364 119.955 13.056 118.714 13.056Z" fill="#343A40"/>
</svg>
