<svg width="32" height="32" viewBox="0 0 32 32" fill="none" xmlns="http://www.w3.org/2000/svg">
<path d="M26.0241 16C26.0055 15.9997 25.9869 15.9998 25.9683 15.9999C20.4692 15.9701 16.0185 11.5343 16.0002 6.03247L16 6.05657L16.0001 5.9984L16.0001 6.02958L16.0002 6.01824L16.0002 6.01501L16.0002 6.01207L16.0002 6.00727L16.0001 5.9984L16 5.9908L16 5.9759C16.0515 2.61529 18.794 9.09401e-09 22.1687 1.07269e-08C24.0036 1.16148e-08 25.5392 1.21034 25.9287 2.90769L26.0241 3.75904L26.0241 5.9759L26.0241 16Z" fill="#4172F1"/>
<path d="M15.9999 25.9563L15.9999 25.9475C15.9999 25.9409 15.9999 25.9343 16 25.9277C16.0506 20.4359 20.4237 16 25.9277 16C25.9413 16 25.9548 15.9999 25.9683 15.9999C25.9869 16 26.0055 16 26.0241 16C29.3847 16.0515 32 18.794 32 22.1687C32 24.298 30.3703 26.0241 28.241 26.0241L25.9277 26.0241L16 26.0241C16 26.0135 16 26.0029 15.9999 25.9922L15.9999 25.9677C15.9999 25.9638 15.9999 25.96 15.9999 25.9563Z" fill="#4172F1"/>
<path d="M16 5.9759C15.9999 5.98087 15.9999 5.98583 16 5.9908C15.9925 11.5205 11.5074 16 5.9759 16C2.61529 15.9485 -6.39009e-09 13.206 -4.75716e-09 9.83133C-3.72684e-09 7.70203 1.62975 5.9759 3.75904 5.9759L5.9759 5.9759L16 5.9759Z" fill="#4172F1"/>
<path d="M15.9999 25.9475L15.9999 25.9563L15.9999 25.9677C15.9784 29.3554 13.2249 32 9.83133 32C7.70203 32 5.9759 30.3703 5.9759 28.241L5.9759 26.0241L5.9759 25.9277L5.9759 16C5.98192 16.0001 5.98793 16.0002 5.99395 16.0002C11.4776 16.0602 16 20.4297 16 25.9277C15.9999 25.9343 15.9999 25.9409 15.9999 25.9475Z" fill="#4172F1"/>
</svg>
