<svg width="327" height="327" viewBox="0 0 327 327" fill="none" xmlns="http://www.w3.org/2000/svg">
<path d="M265.9 163.48C265.711 163.477 265.521 163.477 265.331 163.478C209.143 163.174 163.668 117.851 163.481 61.6366L163.48 61.8828L163.48 61.2885L163.481 61.607L163.482 61.4912L163.482 61.4582L163.482 61.4281L163.482 61.3791L163.48 61.2885L163.48 61.2108L163.48 61.0586C164.006 26.7216 192.027 9.29177e-08 226.508 1.09602e-07C245.256 1.18674e-07 260.946 12.3666 264.925 29.7093L265.9 38.4078L265.9 61.0586L265.9 163.48Z" fill="#94CBFF" fill-opacity="0.4"/>
<path d="M163.478 265.207L163.478 265.118C163.479 265.051 163.479 264.983 163.48 264.916C163.997 208.804 208.679 163.48 264.916 163.48C265.054 163.48 265.192 163.479 265.331 163.478C265.52 163.479 265.71 163.48 265.9 163.48C300.237 164.006 326.959 192.027 326.959 226.508C326.959 248.264 310.307 265.9 288.551 265.9L264.916 265.9L163.48 265.9C163.48 265.792 163.479 265.683 163.479 265.575L163.478 265.324C163.478 265.284 163.478 265.246 163.478 265.207Z" fill="#94CBFF" fill-opacity="0.4"/>
<path d="M163.48 61.0586C163.479 61.1094 163.479 61.1601 163.48 61.2108C163.402 117.711 117.577 163.48 61.0586 163.48C26.7216 162.953 -6.52906e-08 134.932 -4.86062e-08 100.451C-3.80789e-08 78.6953 16.6519 61.0586 38.4078 61.0586L61.0586 61.0586L163.48 61.0586Z" fill="#94CBFF" fill-opacity="0.4"/>
<path d="M163.478 265.118L163.478 265.207L163.478 265.324C163.258 299.938 135.125 326.959 100.451 326.959C78.6953 326.959 61.0586 310.307 61.0586 288.551L61.0586 265.9L61.0586 264.916L61.0586 163.48C61.1201 163.48 61.1815 163.481 61.243 163.481C117.272 164.095 163.48 208.74 163.48 264.916C163.479 264.983 163.479 265.051 163.478 265.118Z" fill="#94CBFF" fill-opacity="0.4"/>
</svg>
