<svg width="20" height="22" viewBox="0 0 20 22" fill="none" xmlns="http://www.w3.org/2000/svg">
<path d="M16.0001 7C16.0001 5.4087 15.368 3.88258 14.2427 2.75736C13.1175 1.63214 11.5914 1 10.0001 1C8.40879 1 6.88267 1.63214 5.75745 2.75736C4.63223 3.88258 4.00009 5.4087 4.00009 7C4.00009 14 1.00009 16 1.00009 16H19.0001C19.0001 16 16.0001 14 16.0001 7Z" stroke="#212529" stroke-width="2" stroke-linecap="round" stroke-linejoin="round"/>
<path d="M11.7296 20C11.5538 20.3031 11.3015 20.5547 10.9978 20.7295C10.6942 20.9044 10.35 20.9965 9.99962 20.9965C9.64924 20.9965 9.30501 20.9044 9.0014 20.7295C8.69778 20.5547 8.44543 20.3031 8.26962 20" stroke="#212529" stroke-width="2" stroke-linecap="round" stroke-linejoin="round"/>
</svg>
