<svg width="12" height="12" viewBox="0 0 12 12" fill="none" xmlns="http://www.w3.org/2000/svg">
<g clip-path="url(#clip0_585_1306)">
<path d="M5.50049 2.00006H2.00049C1.73527 2.00006 1.48092 2.10542 1.29338 2.29295C1.10585 2.48049 1.00049 2.73484 1.00049 3.00006V10.0001C1.00049 10.2653 1.10585 10.5196 1.29338 10.7072C1.48092 10.8947 1.73527 11.0001 2.00049 11.0001H9.00049C9.2657 11.0001 9.52006 10.8947 9.70759 10.7072C9.89513 10.5196 10.0005 10.2653 10.0005 10.0001V6.50006" stroke="#495057" stroke-linecap="round" stroke-linejoin="round"/>
<path d="M9.25049 1.24999C9.4494 1.05108 9.71918 0.939331 10.0005 0.939331C10.2818 0.939331 10.5516 1.05108 10.7505 1.24999C10.9494 1.4489 11.0611 1.71869 11.0611 1.99999C11.0611 2.2813 10.9494 2.55108 10.7505 2.74999L6.00049 7.49999L4.00049 7.99999L4.50049 5.99999L9.25049 1.24999Z" stroke="#495057" stroke-linecap="round" stroke-linejoin="round"/>
</g>
<defs>
<clipPath id="clip0_585_1306">
<rect width="12" height="12" fill="white"/>
</clipPath>
</defs>
</svg>
