<svg width="24" height="24" viewBox="0 0 24 24" fill="none" xmlns="http://www.w3.org/2000/svg">
<path d="M12 2C17.5228 2 22 6.47715 22 12C22 17.5228 17.5228 22 12 22C6.47715 22 2 17.5228 2 12C2 6.47715 6.47715 2 12 2ZM12 16.25C11.5858 16.25 11.25 16.5858 11.25 17C11.25 17.4142 11.5858 17.75 12 17.75H12.0098C12.424 17.75 12.7598 17.4142 12.7598 17C12.7598 16.5858 12.424 16.25 12.0098 16.25H12ZM12.5537 6.2998C11.6809 6.15013 10.783 6.314 10.0195 6.7627C9.25614 7.21142 8.67666 7.91662 8.38281 8.75195C8.24574 9.14251 8.45035 9.57056 8.84082 9.70801C9.23138 9.8453 9.65927 9.63943 9.79688 9.24902C9.9732 8.74795 10.3223 8.32583 10.7803 8.05664C11.2382 7.78757 11.7763 7.68863 12.2998 7.77832C12.8235 7.86817 13.2994 8.14039 13.6416 8.54688C13.9835 8.95321 14.1706 9.46798 14.1699 9.99902V10.001C14.1695 10.6025 13.7083 11.1574 13.0039 11.627C12.6745 11.8465 12.3393 12.0144 12.084 12.1279C11.9577 12.1841 11.8532 12.2259 11.7822 12.2529C11.7468 12.2664 11.7192 12.2762 11.7021 12.2822L11.6816 12.2891H11.6826C11.2899 12.4201 11.0774 12.8446 11.208 13.2373C11.3391 13.6299 11.7645 13.8427 12.1572 13.7119H12.1582L12.1592 13.7109C12.16 13.7107 12.1611 13.7103 12.1621 13.71C12.1647 13.7091 12.1689 13.7084 12.1729 13.707C12.1808 13.7043 12.1918 13.7 12.2051 13.6953C12.2319 13.6858 12.2692 13.6719 12.3154 13.6543C12.4084 13.6189 12.5388 13.5667 12.6934 13.498C13.0003 13.3616 13.4157 13.1551 13.8359 12.875C14.5814 12.378 15.5408 11.5152 15.6582 10.2578L15.6699 10.001C15.6711 9.11582 15.359 8.25831 14.7891 7.58105C14.2188 6.90357 13.4265 6.44954 12.5537 6.2998Z" fill="#4172F1"/>
</svg>
