<svg width="24" height="24" viewBox="0 0 24 24" fill="none" xmlns="http://www.w3.org/2000/svg">
<path d="M11.5391 1.40845C11.8099 1.1978 12.1901 1.1978 12.4609 1.40845L21.4609 8.40845C21.6433 8.55055 21.75 8.76902 21.75 9.00024V20.0002C21.7499 20.7295 21.46 21.4289 20.9443 21.9446C20.4286 22.4602 19.7293 22.7502 19 22.7502H5C4.27071 22.7502 3.57138 22.4602 3.05566 21.9446C2.53999 21.4289 2.25006 20.7295 2.25 20.0002V9.00024L2.25488 8.91431C2.27778 8.71566 2.37947 8.5328 2.53906 8.40845L11.5391 1.40845ZM9 12.0002V22.0002H15V12.0002H9Z" fill="#4172F1"/>
<path d="M3 9L12 2L21 9V20C21 20.5304 20.7893 21.0391 20.4142 21.4142C20.0391 21.7893 19.5304 22 19 22H5C4.46957 22 3.96086 21.7893 3.58579 21.4142C3.21071 21.0391 3 20.5304 3 20V9Z" stroke="#4172F1" stroke-width="1.5" stroke-linecap="round" stroke-linejoin="round"/>
</svg>
