<svg width="24" height="24" viewBox="0 0 24 24" fill="none" xmlns="http://www.w3.org/2000/svg">
<path d="M22.0117 5.17V17.06C22.0117 18.03 21.2217 18.92 20.2517 19.04L19.9417 19.08C18.3017 19.3 15.9917 19.98 14.1317 20.76C13.4817 21.03 12.7617 20.54 12.7617 19.83V5.92C12.7617 5.55 12.9717 5.21 13.3017 5.03C15.1317 4.04 17.9017 3.16 19.7817 3H19.8417C21.0417 3 22.0117 3.97 22.0117 5.17Z" fill="#4172F1"/>
<path d="M10.72 5.03C8.89 4.04 6.12 3.16 4.24 3H4.17C2.97 3 2 3.97 2 5.17V17.06C2 18.03 2.79 18.92 3.76 19.04L4.07 19.08C5.71 19.3 8.02 19.98 9.88 20.76C10.53 21.03 11.25 20.54 11.25 19.83V5.92C11.25 5.54 11.05 5.21 10.72 5.03ZM5.01 8.06H7.26C7.67 8.06 8.01 8.4 8.01 8.81C8.01 9.23 7.67 9.56 7.26 9.56H5.01C4.6 9.56 4.26 9.23 4.26 8.81C4.26 8.4 4.6 8.06 5.01 8.06ZM8.01 12.56H5.01C4.6 12.56 4.26 12.23 4.26 11.81C4.26 11.4 4.6 11.06 5.01 11.06H8.01C8.42 11.06 8.76 11.4 8.76 11.81C8.76 12.23 8.42 12.56 8.01 12.56Z" fill="#4172F1"/>
</svg>
