<svg width="24" height="24" viewBox="0 0 24 24" fill="none" xmlns="http://www.w3.org/2000/svg">
<path d="M4.16016 2.6697C6.26013 2.83976 9.43974 3.8996 11.2197 5.00955L11.25 5.02713V21.0828C9.30256 20.0694 6.11969 19.0388 4.03027 18.7595L3.74023 18.7195C2.78023 18.5995 2 17.699 2 16.739V4.65896C2.00016 3.4691 2.97025 2.56971 4.16016 2.6697Z" fill="#4172F1"/>
<path d="M19.8301 2.67947C21.0201 2.57951 22 3.46973 22 4.6697V16.739C22 17.699 21.2198 18.5995 20.2598 18.7195L19.9297 18.7595C17.8519 19.036 14.7031 20.0582 12.75 21.0711V5.01931C13.3721 4.63954 14.1528 4.26056 15 3.9197V7.99881L17 6.6697L19 7.99881V2.77908C19.2698 2.72912 19.5297 2.69947 19.7695 2.67947H19.8301Z" fill="#4172F1"/>
</svg>
