<svg width="24" height="24" viewBox="0 0 24 24" fill="none" xmlns="http://www.w3.org/2000/svg">
<path d="M12.0391 2C9.41906 2 7.28906 4.13 7.28906 6.75C7.28906 9.32 9.29906 11.4 11.9191 11.49C11.9991 11.48 12.0791 11.48 12.1391 11.49C12.1591 11.49 12.1691 11.49 12.1891 11.49C12.1991 11.49 12.1991 11.49 12.2091 11.49C14.7691 11.4 16.7791 9.32 16.7891 6.75C16.7891 4.13 14.6591 2 12.0391 2Z" fill="#4172F1"/>
<path d="M17.12 14.1489C14.33 12.2889 9.78 12.2889 6.97 14.1489C5.7 14.9989 5 16.1489 5 17.3789C5 18.6089 5.7 19.7489 6.96 20.5889C8.36 21.5289 10.2 21.9989 12.04 21.9989C13.88 21.9989 15.72 21.5289 17.12 20.5889C18.38 19.7389 19.08 18.5989 19.08 17.3589C19.07 16.1289 18.38 14.9889 17.12 14.1489Z" fill="#4172F1"/>
</svg>
