<svg width="172" height="165" viewBox="0 0 172 165" fill="none" xmlns="http://www.w3.org/2000/svg">
<path d="M149.39 39.2034C149.288 39.2426 149.185 39.2837 149.083 39.325C118.742 51.2299 84.5036 36.5768 72.328 6.32679L72.3802 6.45975L72.2529 6.13936L72.3216 6.31087L72.2972 6.24827L72.2902 6.23044L72.2838 6.21427L72.2731 6.18789L72.2529 6.13936L72.2357 6.09772L72.203 6.0157C65.1112 -12.5992 74.4701 -33.0165 93.0493 -40.4229C103.152 -44.4501 114.262 -41.1566 120.131 -32.6666L122.525 -28.189L127.391 -15.9841L149.39 39.2034Z" fill="#94CBFF" fill-opacity="0.4"/>
<path d="M116.053 116.017L116.034 115.969C116.02 115.933 116.005 115.897 115.991 115.86C104.217 85.5141 118.558 51.4945 148.86 39.415C148.934 39.3852 149.009 39.3551 149.083 39.325C149.185 39.2848 149.288 39.2443 149.39 39.2034C168.005 32.1115 188.423 41.4705 195.829 60.0497C200.502 71.7725 195.318 84.8525 183.595 89.5256L170.859 94.6025L116.203 116.391C116.179 116.332 116.156 116.274 116.132 116.215L116.078 116.08C116.07 116.059 116.061 116.038 116.053 116.017Z" fill="#94CBFF" fill-opacity="0.4"/>
<path d="M72.203 6.0157C72.2135 6.04321 72.2245 6.07048 72.2357 6.09772C84.3303 36.5581 69.4689 71.0631 39.0153 83.203C20.4004 90.2949 -0.0169446 80.9359 -7.4233 62.3567C-12.0964 50.6339 -6.9122 37.5539 4.81058 32.8808L17.0155 28.0155L72.203 6.0157Z" fill="#94CBFF" fill-opacity="0.4"/>
<path d="M116.034 115.969L116.053 116.017L116.078 116.08C123.395 134.779 114.039 155.382 95.3563 162.829C83.6335 167.502 70.5535 162.318 65.8804 150.595L61.0151 138.391L60.8035 137.86L39.0153 83.203C39.0486 83.1903 39.0818 83.1774 39.115 83.1644C69.4369 71.4599 103.925 85.5911 115.991 115.86C116.005 115.897 116.02 115.933 116.034 115.969Z" fill="#94CBFF" fill-opacity="0.4"/>
</svg>
