<svg width="143" height="32" viewBox="0 0 143 32" fill="none" xmlns="http://www.w3.org/2000/svg">
<path d="M24.096 16C24.0815 15.9998 24.0669 15.9998 24.0524 15.9999C19.7562 15.9766 16.2791 12.5112 16.2648 8.21287L16.2647 8.23169L16.2647 8.18625L16.2648 8.21061L16.2648 8.20175L16.2648 8.19923V8.19693L16.2648 8.19318L16.2647 8.18625L16.2647 8.18031V8.16868C16.3049 5.54319 18.4475 3.5 21.0839 3.5C22.5175 3.5 23.7172 4.44558 24.0214 5.77164L24.096 6.43675V8.16868V16Z" fill="#4172F1"/>
<path d="M16.2646 23.7783L16.2646 23.7715C16.2646 23.7664 16.2646 23.7612 16.2647 23.756C16.3042 19.4656 19.7207 16 24.0207 16C24.0313 16 24.0418 15.9999 24.0524 15.9999C24.0669 16 24.0814 16 24.096 16C26.7215 16.0402 28.7646 18.1828 28.7646 20.8193C28.7646 22.4828 27.4914 23.8313 25.8279 23.8313H24.0207H16.2647C16.2647 23.823 16.2646 23.8147 16.2646 23.8064L16.2646 23.7873C16.2646 23.7842 16.2646 23.7813 16.2646 23.7783Z" fill="#4172F1"/>
<path d="M16.2647 8.16868C16.2646 8.17255 16.2646 8.17643 16.2647 8.18031C16.2588 12.5004 12.7548 16 8.43332 16C5.80784 15.9598 3.76465 13.8172 3.76465 11.1807C3.76465 9.51721 5.03789 8.16868 6.7014 8.16868H8.43332H16.2647Z" fill="#4172F1"/>
<path d="M16.2646 23.7715L16.2646 23.7783L16.2646 23.7873C16.2478 26.4339 14.0966 28.5 11.4454 28.5C9.78186 28.5 8.43332 27.2268 8.43332 25.5633V23.8313V23.756V16C8.43802 16.0001 8.44272 16.0001 8.44742 16.0001C12.7315 16.047 16.2647 19.4607 16.2647 23.756C16.2646 23.7612 16.2646 23.7664 16.2646 23.7715Z" fill="#4172F1"/>
<path d="M102.396 18.0616C102.581 21.0138 104.11 22.6744 106.719 22.6744C108.591 22.6744 110.014 21.8046 110.805 20.1703L113.072 20.9611C111.938 23.4652 109.592 24.9149 106.825 24.9149C102.634 24.9149 99.866 21.9364 99.866 17.4817C99.866 12.8161 102.581 9.89023 106.719 9.89023C111.016 9.89023 113.52 13.0006 113.283 18.0616H102.396ZM106.798 11.999C104.268 11.999 102.765 13.4751 102.449 16.1637H110.884C110.568 13.3696 109.223 11.999 106.798 11.999Z" fill="black"/>
<path d="M64.8108 10.2856H66.9195V24.5196H64.8108V22.2C63.8882 23.9133 62.1749 24.9149 60.0134 24.9149C55.9805 24.9149 53.5818 21.6464 53.5818 17.4026C53.5818 13.106 55.9805 9.89023 60.0661 9.89023C62.2539 9.89023 63.9146 10.8655 64.8108 12.5525V10.2856ZM60.3034 22.7535C63.1238 22.7535 64.4154 20.513 64.4154 17.3762C64.4154 14.2395 63.0974 12.0253 60.3297 12.0253C57.5357 12.0253 56.0859 14.2131 56.0859 17.4026C56.0859 20.4075 57.4302 22.7535 60.3034 22.7535Z" fill="black"/>
<path d="M137.031 10.0851H142.593V24.319H140.247V19.1526H137.163H136.583L133.182 24.319H130.652L134.237 18.8363C132.418 18.3355 131.1 16.9648 131.1 14.6715C131.1 12.2201 132.576 10.7177 134.553 10.2696C135.423 10.0851 136.398 10.0851 137.031 10.0851ZM140.247 17.2284V12.0093H137.004C136.583 12.0093 135.845 12.0356 135.265 12.1938C134.421 12.4574 133.499 13.2745 133.499 14.6452C133.499 15.9631 134.342 16.7803 135.397 17.0702C135.976 17.202 136.583 17.2284 137.004 17.2284H140.247Z" fill="black"/>
<path d="M122.243 8.69626C120.239 8.69626 118.632 7.08835 118.632 5.08506H120.529C120.529 6.03399 121.294 6.7984 122.243 6.7984C123.192 6.7984 123.93 6.03399 123.93 5.08506H125.828C125.828 7.08835 124.22 8.69626 122.243 8.69626ZM127.752 10.2778V24.5117H125.485V14.0208L118.025 24.5117H116.101V10.2778H118.368V20.6106L125.828 10.2778H127.752Z" fill="black"/>
<path d="M93.4734 10.0851L99.0424 24.3194H85.0391L90.608 10.0851H93.4734ZM88.2773 22.1843H96.1278L92.0176 12.5978L88.2773 22.1843Z" fill="black"/>
<path d="M76.7569 8.69626C74.7536 8.69626 73.1457 7.08835 73.1457 5.08506H75.0436C75.0436 6.03399 75.808 6.7984 76.7569 6.7984C77.7058 6.7984 78.4439 6.03399 78.4439 5.08506H80.3418C80.3418 7.08835 78.7338 8.69626 76.7569 8.69626ZM82.266 10.2778V24.5117H79.9991V14.0208L72.5395 24.5117H70.6152V10.2778H72.8821V20.6106L80.3418 10.2778H82.266Z" fill="black"/>
<path d="M39.0434 24.319V12.2201H36.4075V10.0851H52.2493V12.2201H49.6134V24.319H47.2674V12.2201H41.3893V24.319H39.0434Z" fill="black"/>
</svg>
