<svg width="24" height="24" viewBox="0 0 24 24" fill="none" xmlns="http://www.w3.org/2000/svg">
<path d="M5.87604 13.1785L5.86622 17.783C5.86622 19.0299 6.82837 20.3651 8.00651 20.7578L11.1384 21.7985C11.6784 21.9752 12.5718 21.9752 13.1216 21.7985L16.2535 20.7578C17.4316 20.3651 18.3938 19.0299 18.3938 17.783V13.2276" stroke="#212529" stroke-width="1.5" stroke-linecap="round" stroke-linejoin="round"/>
<path d="M10.1355 2.52143L4.38315 6.37877C2.53895 7.61548 2.53895 10.3833 4.38315 11.62L10.1355 15.4773C11.1675 16.1742 12.8683 16.1742 13.9003 15.4773L19.624 11.62C21.4587 10.3833 21.4587 7.62529 19.624 6.38859L13.9003 2.53125C12.8683 1.82456 11.1675 1.82456 10.1355 2.52143Z" stroke="#212529" stroke-width="1.5" stroke-linecap="round" stroke-linejoin="round"/>
<path d="M21 15V9" stroke="#212529" stroke-width="1.5" stroke-linecap="round" stroke-linejoin="round"/>
</svg>
