<svg width="24" height="24" viewBox="0 0 24 24" fill="none" xmlns="http://www.w3.org/2000/svg">
<path d="M9.73633 18.1874C11.0617 19.0587 13.2469 19.0587 14.5723 18.1874L19.1299 15.1962V17.7831C19.1299 18.5889 18.8234 19.3822 18.3633 20.0214C17.9033 20.6604 17.2491 21.2027 16.4863 21.4569H16.4854L13.3535 22.4969L13.3467 22.4999C12.9765 22.6188 12.5341 22.6678 12.126 22.6678C11.7185 22.6678 11.2768 22.6192 10.9092 22.4989L10.9062 22.4969L7.77441 21.4569H7.77344C7.01068 21.2026 6.3565 20.6604 5.89648 20.0214C5.43638 19.3822 5.12989 18.5889 5.12988 17.7831V17.7811L5.13477 15.1835L9.73633 18.1874Z" fill="#4172F1"/>
<path d="M10.1355 2.52143L4.38315 6.37877C2.53895 7.61548 2.53895 10.3833 4.38315 11.62L10.1355 15.4773C11.1675 16.1742 12.8683 16.1742 13.9003 15.4773L19.624 11.62C21.4587 10.3833 21.4587 7.62529 19.624 6.38859L13.9003 2.53125C12.8683 1.82456 11.1675 1.82456 10.1355 2.52143Z" fill="#4172F1" stroke="#4172F1" stroke-width="1.5" stroke-linecap="round" stroke-linejoin="round"/>
<path d="M21 15V9" stroke="#4172F1" stroke-width="1.5" stroke-linecap="round" stroke-linejoin="round"/>
</svg>
