<svg width="59" height="59" viewBox="0 0 59 59" fill="none" xmlns="http://www.w3.org/2000/svg">
<path fill-rule="evenodd" clip-rule="evenodd" d="M58.803 29.1133C58.8577 29.1123 58.9124 29.1114 58.967 29.1115L58.803 29.1133Z" fill="#4172F1"/>
<path fill-rule="evenodd" clip-rule="evenodd" d="M-3.29918e-05 29.9328C0.0281169 29.9325 0.216233 29.93 0.188776 29.9305C0.166517 29.931 0.144269 29.9314 0.122031 29.9318C0.0990249 29.9321 0.0760302 29.9325 0.0530448 29.9327C16.1844 29.885 29.6655 42.5877 29.8914 58.804C29.8146 42.6039 42.4948 29.3409 58.6835 29.1154C58.7152 29.115 58.7469 29.1144 58.7785 29.1138C58.7867 29.1136 58.7948 29.1135 58.803 29.1133C42.6273 29.2507 29.3543 16.3498 29.0744 0.122906L29.0741 0.0809309L29.0739 0.0627327L29.0736 0.0485673L29.0729 0.0224278L29.0723 1.26693e-05C29.2773 16.3103 16.2696 29.7062 -3.29918e-05 29.9328Z" fill="#4172F1"/>
</svg>
