<svg width="143" height="34" viewBox="0 0 143 34" fill="none" xmlns="http://www.w3.org/2000/svg">
<path d="M25.1446 17C25.1295 16.9998 25.1144 16.9998 25.0993 16.9999C20.6312 16.9757 17.015 13.3716 17.0001 8.90138L17 8.92096L17.0001 8.8737L17.0001 8.89903L17.0002 8.88982L17.0002 8.88719V8.88481L17.0002 8.8809L17.0001 8.8737L17 8.86753V8.85542C17.0419 6.12492 19.2701 4 22.012 4C23.503 4 24.7506 4.9834 25.067 6.3625L25.1446 7.05422V8.85542V17Z" fill="#4172F1"/>
<path d="M16.9999 25.0895L16.9999 25.0824C16.9999 25.077 17 25.0716 17 25.0663C17.0411 20.6042 20.5943 17 25.0663 17C25.0773 17 25.0883 16.9999 25.0993 16.9999C25.1144 17 25.1295 17 25.1446 17C27.8751 17.0419 30 19.2701 30 22.012C30 23.7421 28.6758 25.1446 26.9458 25.1446H25.0663H17C17 25.1359 17 25.1273 16.9999 25.1187L16.9999 25.0987C16.9999 25.0956 16.9999 25.0925 16.9999 25.0895Z" fill="#4172F1"/>
<path d="M17 8.85542C16.9999 8.85946 17 8.86349 17 8.86753C16.9939 13.3604 13.3498 17 8.85542 17C6.12492 16.9581 4 14.7299 4 11.988C4 10.2579 5.32417 8.85542 7.05422 8.85542H8.85542H17Z" fill="#4172F1"/>
<path d="M16.9999 25.0824L16.9999 25.0895L16.9999 25.0987C16.9824 27.8513 14.7452 30 11.988 30C10.2579 30 8.85542 28.6758 8.85542 26.9458V25.1446V25.0663V17C8.86031 17.0001 8.86519 17.0001 8.87008 17.0001C13.3256 17.0489 17 20.5992 17 25.0663C17 25.0716 16.9999 25.077 16.9999 25.0824Z" fill="#4172F1"/>
<path d="M129.113 11.3069H134.429V23.7862H132.282V19.2937H130.46L126.966 23.7862H124.321L127.964 19.1689C127.016 18.9359 126.251 18.47 125.668 17.7712C125.103 17.0723 124.82 16.257 124.82 15.3252C124.82 14.1771 125.227 13.2204 126.043 12.455C126.858 11.6896 127.881 11.3069 129.113 11.3069ZM129.187 17.3469H132.282V13.3285H129.187C128.555 13.3285 128.023 13.5199 127.59 13.9026C127.174 14.2687 126.966 14.7512 126.966 15.3502C126.966 15.9326 127.174 16.4151 127.59 16.7978C128.023 17.1639 128.555 17.3469 129.187 17.3469Z" fill="black"/>
<path d="M120.014 9.45742H112.9V7.56348H120.014V9.45742ZM113.005 20.0735L120.304 11.3265H122.148V23.7866H119.882V15.0396L112.583 23.7866H110.739V11.3265H113.005V20.0735Z" fill="black"/>
<path d="M79.8851 9.43519H73.1462V7.53833H79.8851V9.43519ZM73.246 20.0676L80.1596 11.3071H81.9067V23.7864H79.7603V15.0259L72.8467 23.7864H71.0996V11.3071H73.246V20.0676Z" fill="black"/>
<path d="M90.0232 15.5497V11.3075H89.4444L88.75 12.8045L90.0232 15.5497Z" fill="black"/>
<path d="M91.2963 12.8045L90.602 11.3075H90.0232V15.5497L91.2963 12.8045Z" fill="black"/>
<path d="M83.6562 23.7869H86.203L87.1125 21.8258L90.0232 15.5497L88.75 12.8045L84.5657 21.8258L83.6562 23.7869Z" fill="black"/>
<path d="M93.8434 23.7869H96.3902L95.4806 21.8258L91.2963 12.8045L90.0232 15.5497L92.9339 21.8258L93.8434 23.7869Z" fill="black"/>
<path d="M86.203 23.7869H90.0232V21.8258H87.1125L86.203 23.7869Z" fill="black"/>
<path d="M90.0232 23.7869H93.8434L92.9339 21.8258H90.0232V23.7869Z" fill="black"/>
<path opacity="0.8" fill-rule="evenodd" clip-rule="evenodd" d="M60.9216 24.1107C63.0015 24.1107 64.5739 23.2871 65.6388 21.6398V17.5466V13.4533C64.5739 11.8061 63.0015 10.9824 60.9216 10.9824C59.1745 10.9824 57.6853 11.623 56.454 12.9042C55.2227 14.1855 54.607 15.7329 54.607 17.5466C54.607 19.3769 55.2227 20.9326 56.454 22.2138C57.6686 23.4784 59.1578 24.1107 60.9216 24.1107ZM65.6388 17.5466C65.6388 18.7945 65.2145 19.8594 64.3659 20.7413C63.5173 21.5899 62.4607 22.0142 61.1961 22.0142C59.9482 22.0142 58.8999 21.5899 58.0513 20.7413C57.2027 19.8594 56.7784 18.7945 56.7784 17.5466C56.7784 16.282 57.2027 15.2254 58.0513 14.3768C58.8999 13.5116 59.9482 13.079 61.1961 13.079C62.4607 13.079 63.5173 13.5116 64.3659 14.3768C65.2145 15.2254 65.6388 16.282 65.6388 17.5466Z" fill="black"/>
<path d="M38.0002 11.3069H52.9754V13.3785H50.9288V23.7862H48.7574V13.3785H42.293V23.7862H40.1216V13.3785H38.0002V11.3069Z" fill="black"/>
<path d="M65.8407 17.5293H67.9584L69.0172 11.3528H66.8996L65.8407 17.5293Z" fill="black" stroke="black" stroke-width="0.176471"/>
<path d="M65.8407 17.5293H67.9584L69.0172 23.7058H66.8996L65.8407 17.5293Z" fill="black" stroke="black" stroke-width="0.176471"/>
<circle cx="61.4312" cy="17.5297" r="6.52941" fill="black"/>
<circle cx="61.431" cy="17.5294" r="4.41176" fill="white"/>
<path d="M108.652 18.8021H98.2811C98.4956 19.8911 98.9989 20.7492 99.791 21.3763C100.583 21.9868 101.573 22.2921 102.761 22.2921C104.395 22.2921 105.583 21.6898 106.326 20.4852L108.157 21.5248C106.936 23.3894 105.121 24.3218 102.712 24.3218C100.765 24.3218 99.1639 23.7112 97.9098 22.4901C96.6887 21.236 96.0782 19.6766 96.0782 17.812C96.0782 15.9308 96.6805 14.3797 97.8851 13.1586C99.0897 11.921 100.649 11.3022 102.563 11.3022C104.378 11.3022 105.855 11.9457 106.994 13.2328C108.149 14.4869 108.727 16.0216 108.727 17.8367C108.727 18.1503 108.702 18.472 108.652 18.8021ZM102.563 13.3318C101.425 13.3318 100.468 13.6536 99.692 14.2972C98.9329 14.9407 98.4626 15.8153 98.2811 16.9209H106.548C106.367 15.7823 105.913 14.8995 105.187 14.2724C104.461 13.6454 103.586 13.3318 102.563 13.3318Z" fill="black"/>
</svg>
