<svg width="100" height="101" viewBox="0 0 100 101" fill="none" xmlns="http://www.w3.org/2000/svg">
<path fill-rule="evenodd" clip-rule="evenodd" d="M38.5981 61.6059L38.5286 61.6052C17.4145 61.3741 0.0016327 44.5497 0.00163271 23.3805L0.0020714 23.3042L0.00205614 23.2707L0.00211336 23.2266C0.0849152 10.1827 10.687 -1.35228e-08 23.7533 -7.20031e-09C31.9519 -3.23321e-09 38.5981 6.27512 38.5981 14.4737L38.5981 23.0094L38.5981 23.3805L38.5981 61.6059Z" fill="#F8F9FA"/>
<path fill-rule="evenodd" clip-rule="evenodd" d="M38.396 38.5971L38.3967 38.5276C38.6278 17.4136 55.4521 0.000656136 76.6213 0.000656146L76.6976 0.00109484L76.7312 0.00107958L76.7752 0.0011368C89.8192 0.0839386 100.002 10.686 100.002 23.7523C100.002 31.9509 93.7267 38.5971 85.5282 38.5971L76.9924 38.5971L76.6213 38.5971L38.396 38.5971Z" fill="#F8F9FA"/>
<path fill-rule="evenodd" clip-rule="evenodd" d="M61.4037 38.4174L61.4732 38.4181C82.5873 38.6492 100 55.4736 100 76.6428L99.9998 76.7191L99.9998 76.7527L99.9997 76.7967C99.9169 89.8407 89.3149 100.023 76.2485 100.023C68.05 100.023 61.4037 93.7482 61.4037 85.5496L61.4037 77.0139L61.4037 76.6428L61.4037 38.4174Z" fill="#F8F9FA"/>
<path fill-rule="evenodd" clip-rule="evenodd" d="M61.6059 61.4262L61.6052 61.4957C61.3741 82.6098 44.5497 100.023 23.3805 100.023L23.3042 100.022L23.2707 100.022L23.2266 100.022C10.1827 99.9394 -1.35228e-08 89.3373 -7.20031e-09 76.271C-3.23321e-09 68.0724 6.27512 61.4262 14.4737 61.4262L23.0094 61.4262L23.3805 61.4262L61.6059 61.4262Z" fill="#F8F9FA"/>
</svg>
