<svg width="555" height="656" viewBox="0 0 555 656" fill="none" xmlns="http://www.w3.org/2000/svg">
<path d="M609.548 457.51C609.115 457.305 608.678 457.109 608.24 456.913C479.487 397.686 422.234 246.205 480.36 116.877L480.1 117.441L480.721 116.077L480.39 116.809L480.513 116.544L480.548 116.468L480.579 116.399L480.629 116.286L480.721 116.077L480.8 115.898L480.958 115.548C517.934 37.2191 610.138 5.02386 689.344 40.9403C732.413 60.4698 755.573 105.221 746.648 149.204L739.828 170.202L716.234 222.234L609.548 457.51Z" fill="#F1F2F4" fill-opacity="0.4"/>
<path d="M268.306 584.505L268.398 584.301C268.469 584.146 268.54 583.991 268.612 583.837C328.249 455.478 478.101 397.905 607.285 456.484C607.603 456.628 607.922 456.77 608.24 456.913C608.675 457.113 609.111 457.312 609.548 457.51C687.877 494.486 720.072 586.689 684.155 665.896C661.493 715.872 604.87 739.041 554.894 716.379L500.599 691.759L267.586 586.099C267.699 585.85 267.811 585.6 267.924 585.351L268.183 584.774C268.225 584.683 268.265 584.594 268.306 584.505Z" fill="#F1F2F4" fill-opacity="0.4"/>
<path d="M480.958 115.548C480.904 115.664 480.851 115.78 480.8 115.898C421.77 245.606 268.826 303.009 138.997 244.137C60.6677 207.161 28.4725 114.958 64.389 35.7511C87.051 -14.2255 143.674 -37.3942 193.65 -14.7322L245.683 8.86181L480.958 115.548Z" fill="#F1F2F4" fill-opacity="0.4"/>
<path d="M268.398 584.301L268.306 584.505L268.183 584.774C231.623 664.058 138.849 696.824 59.1997 660.707C9.22312 638.045 -13.9455 581.422 8.71644 531.445L32.3104 479.413L33.3363 477.151L138.997 244.137C138.856 244.073 139.137 244.204 138.997 244.137C267.065 303.908 327.127 454.794 268.612 583.837C268.54 583.991 268.469 584.146 268.398 584.301Z" fill="#F1F2F4" fill-opacity="0.4"/>
</svg>
