<svg width="100" height="101" viewBox="0 0 100 101" fill="none" xmlns="http://www.w3.org/2000/svg">
<path fill-rule="evenodd" clip-rule="evenodd" d="M38.5981 61.6059L38.5286 61.6052C17.4145 61.3741 0.0016327 44.5498 0.00163271 23.3806L0.0020714 23.3043L0.00205614 23.2707L0.00211336 23.2267C0.0849152 10.1827 10.687 6.10216e-05 23.7533 6.1028e-05C31.9519 6.10319e-05 38.5981 6.27518 38.5981 14.4737L38.5981 23.0095L38.5981 23.3806L38.5981 61.6059Z" fill="#F9FAFB"/>
<path fill-rule="evenodd" clip-rule="evenodd" d="M38.396 38.5972L38.3967 38.5277C38.6278 17.4136 55.4521 0.000717171 76.6213 0.000717182L76.6976 0.00115587L76.7312 0.00114061L76.7752 0.00119783C89.8192 0.0839997 100.002 10.6861 100.002 23.7524C100.002 31.9509 93.7267 38.5972 85.5282 38.5972L76.9924 38.5972L76.6213 38.5972L38.396 38.5972Z" fill="#F9FAFB"/>
<path fill-rule="evenodd" clip-rule="evenodd" d="M61.4037 38.4175L61.4732 38.4182C82.5873 38.6493 100 55.4736 100 76.6428L99.9998 76.7192L99.9998 76.7527L99.9997 76.7968C99.9169 89.8407 89.3149 100.023 76.2485 100.023C68.05 100.023 61.4037 93.7483 61.4037 85.5497L61.4037 77.014L61.4037 76.6428L61.4037 38.4175Z" fill="#F9FAFB"/>
<path fill-rule="evenodd" clip-rule="evenodd" d="M61.6059 61.4263L61.6052 61.4957C61.3741 82.6098 44.5497 100.023 23.3805 100.023L23.3042 100.022L23.2707 100.022L23.2266 100.022C10.1827 99.9394 -1.35228e-08 89.3374 -7.20031e-09 76.2711C-3.23321e-09 68.0725 6.27512 61.4263 14.4737 61.4263L23.0094 61.4263L23.3805 61.4263L61.6059 61.4263Z" fill="#F9FAFB"/>
</svg>
