<svg width="100" height="100" viewBox="0 0 100 100" fill="none" xmlns="http://www.w3.org/2000/svg">
<path fill-rule="evenodd" clip-rule="evenodd" d="M47.5964 61.1782L47.527 61.1775C26.4129 60.9464 8.99998 44.1221 8.99998 22.9529L9.00042 22.8765L9.00041 22.843L9.00047 22.799C9.08327 9.75498 19.6853 -0.427673 32.7517 -0.427673C40.9502 -0.427673 47.5964 5.84745 47.5964 14.046L47.5964 22.5818L47.5964 22.9529L47.5964 61.1782Z" fill="#ADD7FF"/>
<path fill-rule="evenodd" clip-rule="evenodd" d="M47.3943 38.1694L47.395 38.1C47.6261 16.9859 64.4505 -0.427017 85.6196 -0.427017L85.696 -0.426579L85.7295 -0.426594L85.7736 -0.426537C98.8175 -0.343735 109 10.2583 109 23.3247C109 31.5232 102.725 38.1694 94.5265 38.1694L85.9908 38.1694L85.6196 38.1694L47.3943 38.1694Z" fill="#ADD7FF"/>
<path fill-rule="evenodd" clip-rule="evenodd" d="M70.4021 37.9898L70.4716 37.9905C91.5856 38.2216 108.999 55.0459 108.999 76.2151L108.998 76.2914L108.998 76.325L108.998 76.369C108.915 89.413 98.3132 99.5956 85.2469 99.5956C77.0483 99.5956 70.4021 93.3205 70.4021 85.122L70.4021 76.5862L70.4021 76.2151L70.4021 37.9898Z" fill="#ADD7FF"/>
<path fill-rule="evenodd" clip-rule="evenodd" d="M70.6042 60.9985L70.6035 61.068C70.3724 82.1821 53.5481 99.595 32.3789 99.595L32.3026 99.5945L32.269 99.5946L32.225 99.5945C19.181 99.5117 8.99835 88.9096 8.99835 75.8433C8.99835 67.6448 15.2735 60.9985 23.472 60.9985L32.0078 60.9985L32.3789 60.9985L70.6042 60.9985Z" fill="#ADD7FF"/>
</svg>
