<svg width="36" height="35" viewBox="0 0 36 35" fill="none" xmlns="http://www.w3.org/2000/svg">
<path fill-rule="evenodd" clip-rule="evenodd" d="M34.9843 17.5146C35.0168 17.5144 35.0494 17.5143 35.0818 17.5148L34.9843 17.5146Z" fill="#4172F1"/>
<path fill-rule="evenodd" clip-rule="evenodd" d="M2.32578e-05 17.5148C0.0167705 17.5149 0.128687 17.5149 0.112351 17.515C0.0991069 17.5151 0.0858699 17.5152 0.0726387 17.5152C0.0589511 17.5152 0.0452707 17.5152 0.0315968 17.5152C9.6273 17.6202 17.5409 25.2663 17.5409 34.8871C17.6295 25.2772 25.2819 17.5148 34.9132 17.5148C34.932 17.5148 34.9509 17.5147 34.9697 17.5146C34.9746 17.5146 34.9794 17.5146 34.9843 17.5146C25.3614 17.4624 17.5732 9.7004 17.5412 0.0729134L17.5413 0.0480127L17.5414 0.0372164L17.5413 0.0288116L17.5411 0.0133008L17.5409 8.4955e-09C17.5277 9.67634 9.67945 17.5148 2.32578e-05 17.5148Z" fill="#4172F1"/>
</svg>
